<?xml version="1.0" standalone="no"?>
<!DOCTYPE svg PUBLIC "-//W3C//DTD SVG 20010904//EN"
 "http://www.w3.org/TR/2001/REC-SVG-20010904/DTD/svg10.dtd">
<svg version="1.0" xmlns="http://www.w3.org/2000/svg"
 width="707.000000pt" height="299.000000pt" viewBox="0 0 707.000000 299.000000"
 preserveAspectRatio="xMidYMid meet">

<g transform="translate(0.000000,299.000000) scale(0.100000,-0.100000)"
fill="#000000" stroke="none">
<path d="M2617 1959 c-222 -43 -366 -248 -343 -490 20 -221 165 -372 383 -398
76 -9 184 2 241 24 l42 17 0 119 c0 136 -1 137 -76 89 -111 -70 -260 -37 -314
70 -47 92 -31 231 34 296 60 60 171 70 244 22 l38 -25 62 98 c34 54 62 103 62
108 0 14 -116 61 -177 71 -69 12 -131 11 -196 -1z"/>
<path d="M772 1648 c3 -299 4 -316 26 -371 28 -69 98 -144 165 -176 140 -68
345 -42 458 57 49 43 96 135 108 212 6 36 11 183 11 328 l0 262 -125 0 -125 0
0 -277 c0 -245 -2 -282 -18 -312 -26 -52 -61 -73 -119 -73 -60 0 -88 13 -113
55 -19 30 -20 52 -20 320 l0 287 -126 0 -125 0 3 -312z"/>
<path d="M1570 1516 l0 -446 125 0 125 0 0 149 0 148 113 5 c96 4 121 8 175
33 112 50 161 130 162 260 0 99 -27 164 -90 218 -75 64 -106 70 -372 75 l-238
4 0 -446z m409 229 c34 -17 41 -33 41 -86 0 -29 -7 -47 -25 -64 -21 -22 -33
-25 -100 -25 l-75 0 0 95 0 95 65 0 c38 0 78 -6 94 -15z"/>
<path d="M3170 1911 c0 -47 10 -68 138 -286 75 -129 176 -305 223 -392 l86
-158 137 -3 c75 -1 136 0 136 3 0 4 -43 81 -96 172 -52 91 -94 166 -92 168 2
1 21 12 43 23 84 43 135 120 143 218 9 122 -47 218 -160 270 l-63 29 -247 3
-248 4 0 -51z m424 -172 c32 -15 50 -59 42 -104 -10 -52 -37 -65 -133 -65
l-83 0 0 90 0 90 75 0 c41 0 85 -5 99 -11z"/>
<path d="M4255 1948 c-93 -251 -315 -864 -315 -870 0 -4 57 -8 128 -8 l127 0
25 73 25 72 155 0 155 0 25 -72 25 -73 127 0 c71 0 128 3 128 8 1 4 -70 204
-157 444 l-158 438 -143 0 c-105 0 -144 -3 -147 -12z m235 -530 c0 -4 -40 -8
-90 -8 -49 0 -90 1 -90 3 0 4 79 238 86 257 5 12 94 -226 94 -252z"/>
<path d="M4922 1863 l3 -98 118 -3 117 -3 0 -345 0 -345 123 3 122 3 3 343 2
342 115 0 115 0 0 100 0 100 -360 0 -361 0 3 -97z"/>
<path d="M5680 1515 l0 -445 285 0 285 0 0 100 0 100 -160 0 -160 0 0 80 0 80
140 0 140 0 0 95 0 95 -140 0 -140 0 0 70 0 70 160 0 160 0 0 100 0 100 -285
0 -285 0 0 -445z"/>
<path d="M2680 1495 c0 -47 3 -85 8 -85 7 1 102 152 102 164 0 3 -25 6 -55 6
l-55 0 0 -85z"/>
<path d="M3190 1210 l0 -140 115 0 115 0 0 140 0 140 -115 0 -115 0 0 -140z"/>
<path d="M4896 1209 c-37 -29 -37 -89 0 -118 15 -12 37 -21 49 -21 12 0 34 9
49 21 37 29 37 89 0 118 -15 12 -37 21 -49 21 -12 0 -34 -9 -49 -21z"/>
<path d="M6295 1205 c-16 -15 -25 -36 -25 -55 0 -38 39 -80 73 -80 42 0 77 36
77 80 0 71 -76 104 -125 55z"/>
</g>
</svg>
